inDegrees=no
num_controls=7
num_derivatives=13
num_iterations=101
num_multipliers=7
num_parameters=0
num_slacks=7
num_states=26
objective=0.448439
objective_accelerations=0.051120
objective_balance=0.007867
objective_effort=0.038231
objective_height=0.346282
objective_ligament=0.004939
solver_duration=1463.284781
status=Solve_Succeeded
success=true
DataType=double
version=3
OpenSimVersion=4.5
endheader
time	/jointset/ground_pelvis/pelvis_tilt/value	/jointset/ground_pelvis/pelvis_tx/value	/jointset/ground_pelvis/pelvis_ty/value	/jointset/hip_l/hip_flexion_l/value	/jointset/hip_l/hip_adduction_l/value	/jointset/hip_l/hip_rotation_l/value	/jointset/back/lumbar_extension/value	/jointset/patellofemoral_l/patellar_flexion_l/value	/jointset/knee_l/knee_flexion_l/value	/jointset/knee_l/knee_adduction_l/value	/jointset/knee_l/knee_rotation_l/value	/jointset/ankle_l/ankle_angle_l/value	/jointset/subtalar_l/subtalar_angle_l/value	/jointset/ground_pelvis/pelvis_tilt/speed	/jointset/ground_pelvis/pelvis_tx/speed	/jointset/ground_pelvis/pelvis_ty/speed	/jointset/hip_l/hip_flexion_l/speed	/jointset/hip_l/hip_adduction_l/speed	/jointset/hip_l/hip_rotation_l/speed	/jointset/back/lumbar_extension/speed	/jointset/patellofemoral_l/patellar_flexion_l/speed	/jointset/knee_l/knee_flexion_l/speed	/jointset/knee_l/knee_adduction_l/speed	/jointset/knee_l/knee_rotation_l/speed	/jointset/ankle_l/ankle_angle_l/speed	/jointset/subtalar_l/subtalar_angle_l/speed	/forceset/tau_hip_flexion_l	/forceset/tau_hip_adduction_l	/forceset/tau_hip_rotation_l	/forceset/tau_knee_flexion_l	/forceset/tau_ankle_angle_l	/forceset/tau_subtalar_angle_l	/forceset/tau_lumbar_extension	lambda_cid13_p0	lambda_cid13_p1	lambda_cid13_p2	lambda_cid13_p3	lambda_cid13_p4	lambda_cid13_p5	lambda_cid14_p0	/jointset/ground_pelvis/pelvis_tilt/accel	/jointset/ground_pelvis/pelvis_tx/accel	/jointset/ground_pelvis/pelvis_ty/accel	/jointset/hip_l/hip_flexion_l/accel	/jointset/hip_l/hip_adduction_l/accel	/jointset/hip_l/hip_rotation_l/accel	/jointset/back/lumbar_extension/accel	/jointset/patellofemoral_l/patellar_flexion_l/accel	/jointset/knee_l/knee_flexion_l/accel	/jointset/knee_l/knee_adduction_l/accel	/jointset/knee_l/knee_rotation_l/accel	/jointset/ankle_l/ankle_angle_l/accel	/jointset/subtalar_l/subtalar_angle_l/accel	gamma_cid13_p0	gamma_cid13_p1	gamma_cid13_p2	gamma_cid13_p3	gamma_cid13_p4	gamma_cid13_p5	gamma_cid14_p0
0.5	-0.463211086615217	-0.08356672211428462	0.7589311086087578	1.291713031260053	-0.3104097671005825	-0.04951748839466614	-0.3342284236404255	0.682093087164615	0.6820930871647066	-0.1736070122222525	0.1741891493329634	0.01800614289544705	-0.05345716938607926	-0.7877554479170068	-0.2906303530980731	-0.5120055302843629	2.451703699216423	-0.03864938998939697	0.6091081543084744	-0.6261218770337154	1.764045146378779	1.76404514637906	-0.006201802210166422	0.004597943299386382	0.1898662090007663	-0.02162719472060636	-0.2568642329653073	0.02953246197765567	-0.02079597380164962	-0.1985731926878815	0.1555393498229246	0.02984683190258736	0.2285697614063188	10.62048205663804	-17.4843046196317	5.42599412991574	-6.726048145487774	-609.3663258135807	-47.8882800391082	-28.69400596932317	0.6942669450618908	0.776785831749811	-0.2932320988860745	-1.690384036227071	0.6032674587317646	-0.264964584849728	1.955118146134156	-1.127814142561829	-1.127814142561478	0.03930041758827773	-0.05251605872255413	-0.05514432102229528	0.5917331602058218	-2.465174156176722e-07	-8.358795303006632e-07	1.248298395564313e-06	4.638867596689379e-08	-3.621856603490263e-07	1.218279460736219e-07	-2.992786228609849e-07
0.51	-0.4710521741636146	-0.08643387270096944	0.7537975078978888	1.316141112280069	-0.3107675880478205	-0.04343987281285151	-0.3403919480888635	0.6996742705208634	0.6996742705209806	-0.1736699980371559	0.1742330289946385	0.01990110969767065	-0.05364546655256796	-0.7803578790385781	-0.2827773855198925	-0.5146072515602362	2.433590955679562	-0.03291990892184709	0.6063114788298137	-0.606512427228163	1.75195590785139	1.751955907851843	-0.006365719317125687	0.004195025531116696	0.1890850078080043	-0.01603802419991906	-0.2655548252853897	0.03012105596248473	-0.02090557040649621	-0.1997210022026234	0.1557028659944897	0.03048256705783177	0.2352567625621184	10.40537328420397	-17.60420152083059	5.309708682791166	-6.691757186792931	-614.266462320692	-47.5158322507421	-27.67625405352867	0.7780899334230261	0.7929302978552967	-0.2276165201377882	-1.920000095303735	0.5569168640606852	-0.3028405991394033	1.974446211646106	-1.284755635541635	-1.284755635515937	-0.0398426742047557	-0.03196146289214157	-0.095928226661757	0.5415745797229958	-3.026391680993353e-07	-6.581488850946606e-07	1.521751996591389e-06	1.112395662942787e-07	-3.802523345477214e-07	1.790558810294947e-07	-3.218907451538885e-07
0.52	-0.4788161684083918	-0.08922181799647183	0.748641095098621	1.340378409748137	-0.3110682884977246	-0.03739338829977466	-0.34635726047647	0.7171275061062944	0.71712750610644	-0.1737337440030012	0.1742733231132295	0.02178700044631485	-0.05377805889750523	-0.77233678719256	-0.2747892948615829	-0.5165679479640966	2.413546988827176	-0.0272252905225341	0.6028819405605464	-0.5864794648673964	1.738455592215434	1.738455592216059	-0.006353832398753276	0.003880834682327621	0.1880509982848976	-0.01048623041031867	-0.2742454176054662	0.03070964994731794	-0.02101516701133985	-0.2008688117173655	0.1558663821660552	0.0311183022130805	0.2419437637179226	10.18581055162742	-17.72715980783501	5.19829966858454	-6.672955632925593	-619.2521176195371	-47.22276570256571	-26.65345445333957	0.8189715385797718	0.8038104477756209	-0.1650271244835	-2.076628699332236	0.5962949250843887	-0.391537142971015	2.039820657177021	-1.410029564275265	-1.410029564275073	0.07446122265461624	-0.03477067482644323	-0.1057059870912507	0.58425781398844	-2.968612745924904e-07	-5.646647539021093e-07	1.508211390513749e-06	1.211264731952997e-07	-3.562387794599101e-07	2.089417019566673e-07	-3.092930663388761e-07
0.53	-0.4864970351036478	-0.0919293006556374	0.7434682778273848	1.364405968289561	-0.3113122277227307	-0.03138382807438733	-0.3521202684138333	0.7344387820257281	0.7344387820257646	-0.1737966661054855	0.1743105053272358	0.02366131841924127	-0.05385533072312154	-0.7637421367654228	-0.2666927425453467	-0.5178870156706128	2.391658071197091	-0.02158198658772562	0.5989568543177087	-0.5660756821912045	1.723567452882499	1.723567452883127	-0.006233854150829373	0.003554502151009925	0.1867685429677838	-0.004988985133404285	-0.2825784850817529	0.03105493112344353	-0.02111482970530466	-0.202269789177745	0.1563048536449086	0.03149209814440495	0.2482931489551284	10.05372892339545	-17.75521294124553	5.075800383244765	-6.648655338999209	-624.1026079346375	-46.79817444053351	-25.63113152842638	0.893836969111205	0.8147770513464825	-0.09914172698735063	-2.2910656354609	0.5453044183961083	-0.4042509632617588	2.047623134968997	-1.562966400886809	-1.562966400886489	-0.01974797620543385	-0.03205441716822267	-0.1461183126827482	0.5292370399439182	-2.741393572389377e-07	-5.000404502234793e-07	1.412705272041025e-06	1.127091518344615e-07	-3.206063161187798e-07	2.232755364803975e-07	-2.874627385111424e-07
0.54	-0.4940891302597681	-0.09455537790608078	0.7382855108524331	1.38820542918656	-0.3115003426502457	-0.02541577003109223	-0.3576778453120091	0.751594224495215	0.7515942244951437	-0.1738584912459021	0.1743443262409531	0.02552149123726411	-0.05387827426488851	-0.7545824793650621	-0.2585082131171499	-0.5185578887071907	2.367927459942436	-0.01606043102423513	0.5945815041420065	-0.5453932570298631	1.707288902226196	1.707288902226824	-0.006134439985573634	0.003208574624339937	0.1852219673042174	0.0003794263595497821	-0.2909115525580354	0.03140021229956919	-0.02121449239925939	-0.2036707666381266	0.1567433251237609	0.03186589407572918	0.2546425341923383	9.917124964431862	-17.78611986164194	4.957920992511156	-6.642107846967971	-629.0416889355093	-46.4482353461795	-24.60980346462052	0.9319729332245292	0.8214058701677325	-0.0353881904958575	-2.444967424246216	0.5719452508207935	-0.4815899295438925	2.095549154206933	-1.688111828948827	-1.688111828949145	0.07034840612098749	-0.03868967389691374	-0.1585300563817906	0.558491057196376	-2.326708603103037e-07	-4.673461684751458e-07	1.226513905812039e-06	8.404034388603416e-08	-2.721188904548287e-07	2.204029179620211e-07	-2.554175649672064e-07
0.55	-0.5015869929817892	-0.09709927739806362	0.7330992411665391	1.411758867626101	-0.3116336561636753	-0.01949402624572684	-0.3630273482541679	0.7685802956223839	0.7685802956222519	-0.1739187499676178	0.1743747729813293	0.02736501173234907	-0.05384796164468975	-0.7449052531891971	-0.2502665675408873	-0.5185891826610188	2.342477201182772	-0.01062793367577327	0.5896933489787735	-0.5244854246124511	1.68970833325541	1.689708333256005	-0.005920359392655706	0.00288331243447624	0.1834387775027229	0.0056556747519475	-0.2988697013581385	0.03142523325984064	-0.02128929869380607	-0.2051317545721608	0.1571597955434879	0.03216859372029698	0.260619878490293	9.785310191957581	-17.78878934066917	4.837596459465525	-6.56201370043226	-633.7144687515153	-46.09543720690235	-23.59017186243395	0.9982904806876042	0.8263252426572003	0.02898073950648525	-2.637543459810427	0.5249619440256468	-0.503725515680604	2.091686303940665	-1.825530336281692	-1.825530336286441	-0.003555480820135286	-0.02931187614570484	-0.1947121072525608	0.5080180789451656	-2.012680407213141e-07	-4.247210426329921e-07	1.090880378240979e-06	6.491191238142847e-08	-2.324775467264405e-07	2.210755214304876e-07	-2.296382466336699e-07
